<svg width="24" height="25" viewBox="0 0 24 25" fill="none" xmlns="http://www.w3.org/2000/svg">
<path d="M9 12.5001H15M12 9.37508V15.6251M4 6.25008V5.20841C4 4.93215 4.10536 4.6672 4.29289 4.47185C4.48043 4.27649 4.73478 4.16675 5 4.16675H6M11 4.16675H13M18 4.16675H19C19.2652 4.16675 19.5196 4.27649 19.7071 4.47185C19.8946 4.6672 20 4.93215 20 5.20841V6.25008M20 11.4584V13.5417M20 18.7501V19.7917C20 20.068 19.8946 20.333 19.7071 20.5283C19.5196 20.7237 19.2652 20.8334 19 20.8334H18M13 20.8334H11M6 20.8334H5C4.73478 20.8334 4.48043 20.7237 4.29289 20.5283C4.10536 20.333 4 20.068 4 19.7917V18.7501M4 13.5417V11.4584" stroke="#F1A700" stroke-linecap="round" stroke-linejoin="round"/>
</svg>
