<svg width="12" height="13" viewBox="0 0 12 13" fill="none" xmlns="http://www.w3.org/2000/svg">
<path d="M7.06044 6.49998L11.7803 1.78068C12.0732 1.4877 12.0732 1.01269 11.7803 0.719735C11.4873 0.426755 11.0123 0.426755 10.7193 0.719735L5.99998 5.43953L1.28068 0.719735C0.987704 0.426755 0.512692 0.426755 0.219735 0.719735C-0.0732216 1.01272 -0.073245 1.48773 0.219735 1.78068L4.93953 6.49998L0.219735 11.2193C-0.073245 11.5123 -0.073245 11.9873 0.219735 12.2803C0.512715 12.5732 0.987727 12.5732 1.28068 12.2803L5.99998 7.56044L10.7193 12.2803C11.0123 12.5732 11.4873 12.5732 11.7802 12.2803C12.0732 11.9873 12.0732 11.5123 11.7802 11.2193L7.06044 6.49998Z" fill="currentColor"/>
</svg>
