<svg width="23" height="24" viewBox="0 0 23 24" fill="none" xmlns="http://www.w3.org/2000/svg">
<path d="M17.0394 16.8819L15.9255 18.0558C15.1044 18.9144 14.0392 20.0184 12.7292 21.3679C11.9106 22.2113 10.612 22.2112 9.79357 21.3677L6.51727 17.9718C6.10551 17.541 5.76084 17.1777 5.48321 16.8819C2.29206 13.4815 2.29206 7.9683 5.48321 4.56789C8.67436 1.16748 13.8483 1.16748 17.0394 4.56789C20.2306 7.9683 20.2306 13.4815 17.0394 16.8819ZM13.6077 10.9996C13.6077 9.61875 12.5572 8.49936 11.2613 8.49936C9.9655 8.49936 8.91497 9.61875 8.91497 10.9996C8.91497 12.3804 9.9655 13.4998 11.2613 13.4998C12.5572 13.4998 13.6077 12.3804 13.6077 10.9996Z" fill="#ABB1BB"/>
</svg>
