<svg width="24" height="25" viewBox="0 0 24 25" fill="none" xmlns="http://www.w3.org/2000/svg">
<path d="M5 11.5C4.732 11.5 4.49833 11.4003 4.299 11.201C4.09967 11.0017 4 10.768 4 10.5V5.5C4 5.232 4.09967 4.99833 4.299 4.799C4.49833 4.59967 4.732 4.5 5 4.5H10C10.268 4.5 10.5017 4.59967 10.701 4.799C10.9003 4.99833 11 5.232 11 5.5V10.5C11 10.768 10.9003 11.0017 10.701 11.201C10.5017 11.4003 10.268 11.5 10 11.5H5ZM5 20.5C4.732 20.5 4.49833 20.4003 4.299 20.201C4.09967 20.0017 4 19.768 4 19.5V14.5C4 14.232 4.09967 13.9983 4.299 13.799C4.49833 13.5997 4.732 13.5 5 13.5H10C10.268 13.5 10.5017 13.5997 10.701 13.799C10.9003 13.9983 11 14.232 11 14.5V19.5C11 19.768 10.9003 20.0017 10.701 20.201C10.5017 20.4003 10.268 20.5 10 20.5H5ZM14 11.5C13.732 11.5 13.4983 11.4003 13.299 11.201C13.0997 11.0017 13 10.768 13 10.5V5.5C13 5.232 13.0997 4.99833 13.299 4.799C13.4983 4.59967 13.732 4.5 14 4.5H19C19.268 4.5 19.5017 4.59967 19.701 4.799C19.9003 4.99833 20 5.232 20 5.5V10.5C20 10.768 19.9003 11.0017 19.701 11.201C19.5017 11.4003 19.268 11.5 19 11.5H14ZM14 20.5C13.732 20.5 13.4983 20.4003 13.299 20.201C13.0997 20.0017 13 19.768 13 19.5V14.5C13 14.232 13.0997 13.9983 13.299 13.799C13.4983 13.5997 13.732 13.5 14 13.5H19C19.268 13.5 19.5017 13.5997 19.701 13.799C19.9003 13.9983 20 14.232 20 14.5V19.5C20 19.768 19.9003 20.0017 19.701 20.201C19.5017 20.4003 19.268 20.5 19 20.5H14Z" fill="black"/>
</svg>
