<svg width="22" height="14" viewBox="0 0 22 14" fill="none" xmlns="http://www.w3.org/2000/svg">
<path d="M13.3334 12.8334C13.3334 12.4834 13.4501 12.2501 13.6834 12.0167L19.5168 6.18338C19.9834 5.71671 20.6834 5.71671 21.1501 6.18338C21.6168 6.65005 21.6168 7.35005 21.1501 7.81672L15.3167 13.6501C14.8501 14.1168 14.1501 14.1168 13.6834 13.6501C13.4501 13.4167 13.3334 13.1834 13.3334 12.8334Z" fill="white"/>
<path d="M13.3334 1.16667C13.3334 0.81667 13.4501 0.583336 13.6834 0.350002C14.1501 -0.116667 14.8501 -0.116667 15.3167 0.350002L21.1501 6.18338C21.6168 6.65005 21.6168 7.35005 21.1501 7.81672C20.6834 8.28339 19.9834 8.28338 19.5168 7.81671L13.6834 1.98334C13.4501 1.75001 13.3334 1.51667 13.3334 1.16667Z" fill="white"/>
<path d="M0.5 7.00005C0.5 6.30004 0.96667 5.83337 1.66667 5.83337L20.3334 5.83337C21.0334 5.83337 21.5001 6.30004 21.5001 7.00005C21.5001 7.70005 21.0334 8.16672 20.3334 8.16672L1.66667 8.16672C0.96667 8.16672 0.5 7.70005 0.5 7.00005Z" fill="white"/>
</svg>
