<svg width="34" height="35" viewBox="0 0 34 35" fill="none" xmlns="http://www.w3.org/2000/svg">
<path fill-rule="evenodd" clip-rule="evenodd" d="M0.333496 17.5247C0.333496 8.74488 7.35016 0.833008 17.0335 0.833008C26.5002 0.833008 33.6668 8.59465 33.6668 17.4746C33.6668 27.7734 25.2668 34.1663 17.0002 34.1663C14.2668 34.1663 11.2335 33.4319 8.80016 31.9964C7.95016 31.479 7.2335 31.0951 6.31683 31.3955L2.95016 32.397C2.10016 32.6641 1.3335 31.9964 1.5835 31.0951L2.70016 27.3561C2.8835 26.8387 2.85016 26.2879 2.5835 25.8539C1.15016 23.2166 0.333496 20.3289 0.333496 17.5247ZM14.8335 17.5247C14.8335 18.7098 15.7835 19.6612 16.9668 19.6779C18.1502 19.6779 19.1002 18.7098 19.1002 17.5414C19.1002 16.3563 18.1502 15.4049 16.9668 15.4049C15.8002 15.3882 14.8335 16.3563 14.8335 17.5247ZM22.5168 17.5414C22.5168 18.7098 23.4668 19.6779 24.6502 19.6779C25.8335 19.6779 26.7835 18.7098 26.7835 17.5414C26.7835 16.3563 25.8335 15.4049 24.6502 15.4049C23.4668 15.4049 22.5168 16.3563 22.5168 17.5414ZM9.2835 19.6779C8.11683 19.6779 7.15016 18.7098 7.15016 17.5414C7.15016 16.3563 8.10016 15.4049 9.2835 15.4049C10.4668 15.4049 11.4168 16.3563 11.4168 17.5414C11.4168 18.7098 10.4668 19.6612 9.2835 19.6779Z" fill="#DA8661"/>
</svg>
