<svg width="27" height="28" viewBox="0 0 27 28" fill="none" xmlns="http://www.w3.org/2000/svg">
<path d="M17.6995 2.33203C19.0657 2.33203 20.1733 3.50728 20.1733 4.95703V23.0404C20.1733 24.4901 19.0657 25.6654 17.6995 25.6654H9.45334C8.08707 25.6654 6.97949 24.4901 6.97949 23.0404V4.95703C6.97949 3.50728 8.08707 2.33203 9.45334 2.33203H17.6995ZM14.9508 20.9987H12.2021C11.7467 20.9987 11.3774 21.3905 11.3774 21.8737C11.3774 22.3569 11.7467 22.7487 12.2021 22.7487H14.9508C15.4062 22.7487 15.7754 22.3569 15.7754 21.8737C15.7754 21.3905 15.4062 20.9987 14.9508 20.9987Z" fill="#ABB1BB"/>
</svg>
