<svg width="16" height="17" viewBox="0 0 16 17" fill="none" xmlns="http://www.w3.org/2000/svg">
<g clip-path="url(#clip0_4561_9997)">
<path d="M7.27574 9.22385C7.14833 9.09667 6.99649 8.99661 6.82937 8.9297L1.5427 6.8097C1.47958 6.78437 1.42571 6.74034 1.38834 6.68351C1.35096 6.62669 1.33186 6.55979 1.33361 6.4918C1.33535 6.42381 1.35785 6.35798 1.39808 6.30314C1.43832 6.24831 1.49436 6.20709 1.5587 6.18503L14.2254 1.8517C14.2844 1.83036 14.3484 1.82629 14.4097 1.83996C14.471 1.85363 14.5271 1.88447 14.5715 1.92888C14.6159 1.97329 14.6468 2.02943 14.6604 2.09073C14.6741 2.15203 14.67 2.21596 14.6487 2.27503L10.3154 14.9417C10.2933 15.006 10.2521 15.0621 10.1973 15.1023C10.1424 15.1425 10.0766 15.165 10.0086 15.1668C9.9406 15.1685 9.87371 15.1494 9.81688 15.1121C9.76006 15.0747 9.71603 15.0208 9.6907 14.9577L7.5707 9.6697C7.50349 9.50269 7.40315 9.35103 7.27574 9.22385ZM7.27574 9.22385L14.5694 1.93164" stroke="#333333" stroke-width="2" stroke-linecap="round" stroke-linejoin="round"/>
</g>
<defs>
<clipPath id="clip0_4561_9997">
<rect width="16" height="16" fill="white" transform="translate(0 0.5)"/>
</clipPath>
</defs>
</svg>
